<?xml version="1.0" encoding="UTF-8"?>
<svg id="_레이어_1" data-name="레이어_1" xmlns="http://www.w3.org/2000/svg" version="1.1" viewBox="0 0 667 203">
  <!-- Generator: Adobe Illustrator 29.8.0, SVG Export Plug-In . SVG Version: 2.1.1 Build 160)  -->
  <defs>
    <style>
      .st0 {
        fill: #0f6;
      }
    </style>
  </defs>
  <g>
    <path d="M28.15,135.51h36.86c19.22,0,27.18-19.36,12.46-31.29l-26.38-21.21h32.08v-19.89h-36.86c-19.09,0-27.18,19.49-12.33,31.29l26.25,21.35H28.15v19.75Z"/>
    <path d="M118.44,68.69v-26.65h-19.75v92.41h19.75v-36.99c0-7.95,6.5-14.58,14.58-14.58s14.45,6.5,14.45,14.58v36.99h19.89v-36.99c0-18.69-14.32-34.34-31.82-34.34-6.1,0-12.2,2.12-17.1,5.57Z"/>
    <path d="M215.62,135.77c20.02,0,36.33-16.17,36.33-36.46s-16.31-36.19-36.33-36.19-36.33,16.31-36.33,36.19,16.17,36.46,36.33,36.46ZM215.62,116.02c-9.28,0-16.57-7.29-16.57-16.7s7.29-16.31,16.57-16.31,16.44,7.16,16.44,16.31-7.16,16.7-16.44,16.7Z"/>
    <path d="M301.39,65.37c-6.36,0-11.4,5.04-11.4,11.27s5.04,11.53,11.4,11.53,11.4-5.44,11.4-11.53-5.44-11.27-11.4-11.27Z"/>
    <path d="M264.54,90.03v44.41h19.75v-69.74c-12.73,1.99-19.75,10.87-19.75,25.32Z"/>
  </g>
  <g>
    <path class="st0" d="M362.78,134.45v-62.71h-20.02v62.71h20.02Z"/>
    <path class="st0" d="M316.64,41.77v17.24h72.26v-17.24h-72.26Z"/>
  </g>
  <g>
    <path d="M440.2,134.45c16.57,0,25.72-9.15,25.72-25.72v-44.55h-19.89v53.03h-29.17v-53.03h-19.89v44.55c0,16.57,9.15,25.72,25.72,25.72h17.5Z"/>
    <path d="M479.97,99.98c0,18.69,13.26,35.93,32.35,35.93,9.02,0,16.31-3.31,21.48-8.75v7.29h16.31V42.44h-16.31v30.76c-5.17-5.44-12.59-8.88-21.48-8.88-18.96,0-32.35,17.24-32.35,35.66ZM496.15,99.98c0-10.74,8.49-19.09,18.83-19.09s18.83,8.49,18.83,19.09-8.09,19.49-18.83,19.49-18.83-8.75-18.83-19.49Z"/>
    <path d="M634.69,135.37v-70.93h-19.89v52.77h-29.17v-52.77h-19.89v44.28c0,16.57,9.15,25.72,25.72,25.72h23.33v9.55h-35v17.24h29.03c16.7,0,25.85-9.15,25.85-25.85Z"/>
  </g>
</svg>