<?xml version="1.0" encoding="UTF-8"?>
<svg id="_레이어_1" xmlns="http://www.w3.org/2000/svg" xmlns:xlink="http://www.w3.org/1999/xlink" version="1.1" viewBox="0 0 272.94 92.73">
  <!-- Generator: Adobe Illustrator 29.8.0, SVG Export Plug-In . SVG Version: 2.1.1 Build 160)  -->
  <defs>
    <style>
      .st0 {
        fill: none;
      }

      .st1 {
        fill: #ea4848;
      }

      .st2 {
        fill: #2f2d2e;
      }

      .st3 {
        clip-path: url(#clippath);
      }
    </style>
    <clipPath id="clippath">
      <rect class="st0" x="6.57" y="6.74" width="257.39" height="79.24"/>
    </clipPath>
  </defs>
  <g class="st3">
    <g>
      <path id="path92984" class="st1" d="M133.63,134.94l.13.12c.18-.17.35-.36.49-.56s.28-.41.38-.63c.11-.21.18-.44.24-.67.06-.22.09-.44.09-.66,0-.25-.06-.46-.19-.61-.12-.16-.3-.24-.52-.24-.2,0-.37.07-.5.2s-.19.29-.19.48c0,.21.06.38.18.51.12.13.29.2.48.2.09,0,.17-.01.25-.04-.03.24-.09.45-.18.65-.09.2-.2.37-.3.52-.11.15-.2.28-.28.37-.08.1-.12.17-.12.21,0,.03,0,.05,0,.07,0,.03.02.05.05.07h0Z"/>
      <g>
        <path id="path92958" class="st1" d="M40.56,132.37h-4.89l1.3-10.56h-.79l-1.38,11.24h5.67l.09-.68h0Z"/>
        <path id="path92960" class="st1" d="M45.52,125.58h0c.28,0,.51.04.69.11.19.07.35.16.46.26.12.11.2.23.25.36.05.13.08.25.08.36,0,.15-.02.3-.06.44-.04.14-.12.28-.23.42-.11.13-.27.26-.48.39s-.49.25-.83.36c-.34.11-.75.21-1.24.31-.49.09-1.07.18-1.74.25.09-.43.21-.84.39-1.23.18-.4.4-.75.66-1.05.27-.3.57-.54.91-.71.35-.18.73-.27,1.15-.27h0ZM47.47,131.59l-.18-.21c-.05-.05-.1-.08-.17-.08s-.13.03-.21.1c-.07.06-.16.13-.27.23-.11.09-.23.2-.36.3-.13.11-.29.2-.47.3-.18.09-.38.17-.6.24-.22.06-.47.09-.76.09-.72,0-1.26-.22-1.62-.67-.36-.44-.53-1.06-.53-1.85,0-.11,0-.21,0-.33,0-.11.02-.22.03-.33.74-.08,1.39-.17,1.94-.28s1.02-.22,1.41-.35c.4-.13.72-.28.98-.43.26-.15.46-.32.6-.49.15-.18.25-.36.31-.56s.09-.4.09-.62c0-.17-.04-.34-.11-.52-.07-.19-.2-.36-.36-.52-.16-.17-.38-.3-.65-.41-.26-.11-.59-.17-.98-.17-.42,0-.81.07-1.17.21-.36.14-.69.33-.99.56-.29.24-.56.52-.79.84-.23.32-.42.67-.58,1.04-.15.37-.27.76-.35,1.16s-.12.8-.12,1.2c0,.47.06.91.18,1.29.12.38.3.71.53.98.23.27.52.47.86.62.34.14.74.21,1.17.21.3,0,.6-.03.86-.1.27-.06.53-.15.78-.28.25-.12.5-.29.75-.48.25-.2.5-.44.76-.71h0Z"/>
        <path id="path92962" class="st1" d="M55.21,125.77l-.41,3.25c-.19.52-.39,1-.63,1.44-.23.43-.49.8-.76,1.1-.27.31-.54.54-.84.71s-.59.25-.89.25c-.51,0-.88-.2-1.13-.59-.24-.4-.36-.95-.36-1.66,0-.6.11-1.19.33-1.75.22-.56.51-1.06.87-1.49s.79-.78,1.27-1.04.99-.39,1.52-.39c.17,0,.35.01.52.04.17.02.33.06.49.12h0ZM54.69,130.3l-.27,2.46c0,.07.02.14.05.2.04.06.11.09.21.09h.36l.93-7.63c-.27-.14-.54-.23-.82-.28-.28-.06-.57-.09-.88-.09-.44,0-.86.07-1.26.21-.41.14-.79.33-1.15.57s-.69.53-.99.86c-.29.33-.55.7-.76,1.09-.21.4-.38.82-.5,1.26-.12.44-.18.89-.18,1.35,0,.42.04.8.13,1.14.09.34.21.63.37.86.17.24.38.43.63.56.25.13.55.19.87.19s.64-.07.94-.21.59-.33.86-.58c.28-.25.53-.55.77-.9.24-.36.46-.75.67-1.17h0Z"/>
        <path id="path92964" class="st1" d="M59.31,127.75l.23-2.34c0-.19-.09-.28-.28-.28h-.34l-.95,7.93h.74l.48-4.04c.19-.62.41-1.16.64-1.62.24-.45.51-.81.79-1.08.28-.27.59-.44.91-.51.32-.07.67-.04,1.02.1l.13-.71c-.32-.13-.64-.17-.95-.11s-.61.19-.91.41c-.29.22-.56.52-.82.91-.26.38-.49.83-.71,1.35h0Z"/>
        <path id="path92966" class="st1" d="M65.03,127.68l.22-2.28c0-.19-.09-.28-.28-.28h-.34l-.94,7.93h.75l.48-4.18c.19-.49.41-.93.66-1.32.25-.4.51-.73.79-1.01.28-.28.58-.5.87-.64.3-.15.6-.23.9-.23.52,0,.88.2,1.07.6.19.4.24.98.15,1.73l-.6,5.05h.75l.6-5.05c.06-.47.06-.89.02-1.25-.04-.37-.14-.68-.28-.94-.14-.25-.34-.45-.58-.58-.24-.13-.52-.2-.86-.2-.31,0-.62.06-.93.18-.31.12-.6.29-.9.52s-.57.51-.84.84c-.26.33-.5.7-.71,1.12h0Z"/>
        <path id="path92968" class="st1" d="M76.75,131.73h0c0,.49.13.86.37,1.09.25.24.59.36,1.02.36.3,0,.6-.07.91-.2.3-.14.56-.32.77-.54l-.14-.33c-.03-.05-.06-.08-.12-.08-.03,0-.08.03-.14.09-.06.05-.15.11-.25.18-.1.06-.22.12-.36.18-.13.05-.28.08-.46.08-.25,0-.46-.08-.63-.23-.16-.15-.24-.4-.24-.75v-.1s0-.11.02-.19c0-.09.02-.2.04-.34.02-.14.04-.31.07-.53l.55-4.46h2.29l.06-.56h-2.29l.37-3.02h-.36c-.05,0-.1.02-.13.05-.04.04-.06.08-.07.13l-.52,2.83-1.25.1-.04.29c0,.06,0,.1.03.13s.07.05.13.05h1.04l-.54,4.49c-.03.23-.05.43-.07.58-.02.15-.03.27-.04.36,0,.1,0,.17-.02.21v.12h0Z"/>
        <path id="path92970" class="st1" d="M84.77,132.56c-.67,0-1.2-.23-1.57-.69-.37-.47-.56-1.12-.56-1.96,0-.55.07-1.09.22-1.6.15-.51.36-.97.62-1.36.27-.4.6-.72.97-.95.38-.24.8-.36,1.26-.36.67,0,1.19.23,1.56.68.37.45.56,1.1.56,1.95,0,.55-.07,1.08-.22,1.6-.14.51-.35.97-.62,1.37-.27.4-.6.72-.98.96-.37.24-.79.36-1.25.36h0ZM84.71,133.15h0c.57,0,1.09-.14,1.57-.41s.89-.63,1.23-1.08c.35-.45.61-.98.8-1.56.2-.59.29-1.2.29-1.84,0-.5-.07-.94-.21-1.34-.13-.4-.32-.74-.57-1.02-.24-.28-.54-.5-.89-.64-.35-.15-.73-.22-1.15-.22-.57,0-1.09.14-1.57.41-.48.27-.89.62-1.24,1.07-.35.45-.61.97-.8,1.56-.19.59-.28,1.2-.28,1.84,0,.51.07.96.2,1.37.14.4.33.74.57,1.02.25.28.54.5.89.64.35.15.74.22,1.16.22h0Z"/>
        <path id="path92972" class="st1" d="M93.22,129.67c-.49,0-.88-.14-1.17-.44-.28-.29-.43-.72-.43-1.28,0-.3.05-.6.14-.88.1-.29.23-.55.41-.77s.4-.4.67-.53c.26-.14.57-.21.91-.21.49,0,.88.14,1.17.42.3.28.44.69.44,1.24,0,.3-.05.59-.15.89-.1.29-.24.55-.42.79-.18.23-.41.41-.68.56-.27.14-.57.21-.91.21h0ZM94.75,132.31v-.02c.12.15.22.32.3.51.08.18.12.41.12.67,0,.26-.07.5-.2.74-.13.24-.32.45-.56.64-.24.19-.52.33-.86.44s-.72.17-1.14.17c-.33,0-.63-.03-.9-.1s-.5-.16-.69-.28c-.19-.12-.34-.27-.44-.44-.1-.18-.15-.38-.15-.6,0-.29.1-.57.28-.83s.46-.47.84-.64c.38-.17.85-.28,1.41-.33.57-.05,1.23-.03,1.99.09h0ZM97.29,125.41h-2.06c-.39-.27-.85-.4-1.4-.4-.46,0-.87.08-1.23.25-.36.16-.66.38-.91.66-.24.28-.43.59-.56.94-.13.35-.19.71-.19,1.07s.05.68.16.95c.11.27.25.5.44.69.18.19.41.33.67.42s.54.14.84.14c.28,0,.55-.04.79-.12s.47-.2.68-.34c-.18.27-.3.5-.36.69-.06.19-.1.38-.1.56,0,.17.03.32.1.46.06.14.14.27.23.39-.64-.08-1.24-.1-1.83-.04s-1.1.19-1.55.39c-.44.2-.8.46-1.07.79-.27.33-.4.71-.41,1.16,0,.29.07.56.21.79s.33.43.58.59c.25.17.55.29.9.37.35.09.73.13,1.15.13.53,0,1.01-.07,1.44-.21.43-.14.8-.34,1.11-.57s.54-.51.71-.83c.17-.31.26-.63.26-.96,0-.22-.03-.41-.1-.59-.06-.17-.13-.34-.23-.48-.1-.15-.2-.28-.31-.41-.11-.13-.2-.25-.3-.38-.09-.13-.17-.25-.24-.38-.06-.13-.09-.27-.09-.41,0-.19.03-.37.1-.54s.16-.34.26-.5c.11-.16.22-.33.34-.5.13-.18.24-.36.35-.56.11-.2.19-.42.26-.66.07-.24.11-.5.12-.79,0-.24-.03-.46-.08-.66-.05-.2-.12-.38-.22-.55l1.29-.1c.08,0,.13-.03.16-.07.03-.04.05-.09.06-.14l.02-.25h0Z"/>
        <path id="path92974" class="st1" d="M102.1,125.58h0c.28,0,.51.04.69.11.19.07.35.16.46.26s.2.23.25.36c.05.13.08.25.08.36,0,.15-.02.3-.06.44-.04.14-.12.28-.23.42-.11.13-.27.26-.48.39-.21.13-.49.25-.83.36-.34.11-.75.21-1.24.31-.49.09-1.07.18-1.74.25.09-.43.21-.84.39-1.23.18-.4.4-.75.66-1.05.27-.3.57-.54.91-.71.35-.18.73-.27,1.15-.27h0ZM104.05,131.59l-.18-.21c-.05-.05-.1-.08-.17-.08s-.13.03-.21.1c-.07.06-.16.13-.27.23-.11.09-.23.2-.36.3-.13.11-.29.2-.47.3-.18.09-.38.17-.6.24-.22.06-.47.09-.76.09-.72,0-1.26-.22-1.62-.67-.36-.44-.53-1.06-.53-1.85,0-.11,0-.21,0-.33,0-.11.02-.22.03-.33.74-.08,1.39-.17,1.94-.28s1.02-.22,1.41-.35c.4-.13.72-.28.98-.43.26-.15.46-.32.6-.49.15-.18.25-.36.31-.56s.09-.4.09-.62c0-.17-.04-.34-.11-.52-.07-.19-.2-.36-.36-.52-.16-.17-.38-.3-.65-.41-.26-.11-.59-.17-.98-.17-.42,0-.81.07-1.17.21-.36.14-.69.33-.99.56-.29.24-.56.52-.79.84-.23.32-.42.67-.58,1.04-.15.37-.27.76-.35,1.16s-.12.8-.12,1.2c0,.47.06.91.18,1.29.12.38.3.71.53.98.23.27.52.47.86.62.34.14.74.21,1.17.21.3,0,.6-.03.86-.1.27-.06.53-.15.78-.28.25-.12.5-.29.75-.48.25-.2.5-.44.76-.71h0Z"/>
        <path id="path92976" class="st1" d="M106.68,131.73h0c0,.49.13.86.37,1.09.25.24.59.36,1.02.36.3,0,.6-.07.91-.2.3-.14.56-.32.77-.54l-.14-.33c-.03-.05-.06-.08-.12-.08-.03,0-.08.03-.14.09-.06.05-.15.11-.25.18-.1.06-.22.12-.36.18-.13.05-.28.08-.46.08-.25,0-.46-.08-.63-.23-.16-.15-.24-.4-.24-.75v-.1s0-.11.02-.19c0-.09.02-.2.04-.34.02-.14.04-.31.07-.53l.55-4.46h2.29l.06-.56h-2.29l.37-3.02h-.36c-.05,0-.1.02-.13.05-.04.04-.06.08-.07.13l-.52,2.83-1.25.1-.04.29c0,.06,0,.1.03.13.03.03.07.05.13.05h1.04l-.54,4.49c-.03.23-.05.43-.07.58-.02.15-.03.27-.04.36,0,.1,0,.17-.02.21v.12h0Z"/>
        <path id="path92978" class="st1" d="M113.45,127.52l.73-6.03h-.75l-1.4,11.56h.75l.52-4.28c.19-.48.41-.91.66-1.29.25-.39.51-.72.79-.99.28-.27.57-.48.86-.62.3-.15.59-.22.87-.22.52,0,.88.2,1.07.61.19.4.24.98.15,1.73l-.6,5.05h.75l.6-5.05c.06-.47.06-.89.02-1.25-.04-.37-.13-.68-.28-.94s-.34-.45-.58-.58-.53-.2-.88-.2c-.29,0-.6.05-.9.17-.3.11-.59.28-.87.49-.28.21-.55.47-.81.79-.25.31-.49.66-.7,1.05h0Z"/>
        <path id="path92980" class="st1" d="M124.62,125.58h0c.28,0,.51.04.69.11.19.07.35.16.46.26s.2.23.25.36c.05.13.08.25.08.36,0,.15-.02.3-.06.44-.04.14-.12.28-.23.42-.11.13-.27.26-.48.39-.21.13-.49.25-.83.36-.34.11-.75.21-1.24.31-.49.09-1.07.18-1.74.25.09-.43.21-.84.39-1.23.18-.4.4-.75.66-1.05.27-.3.57-.54.91-.71.35-.18.73-.27,1.15-.27h0ZM126.57,131.59l-.18-.21c-.05-.05-.1-.08-.17-.08s-.13.03-.21.1c-.07.06-.16.13-.27.23-.11.09-.23.2-.36.3-.13.11-.29.2-.47.3-.18.09-.38.17-.6.24-.22.06-.47.09-.76.09-.72,0-1.26-.22-1.62-.67-.36-.44-.53-1.06-.53-1.85,0-.11,0-.21,0-.33,0-.11.02-.22.03-.33.74-.08,1.39-.17,1.94-.28s1.02-.22,1.41-.35c.4-.13.72-.28.98-.43.26-.15.46-.32.6-.49.15-.18.25-.36.31-.56s.09-.4.09-.62c0-.17-.04-.34-.11-.52-.07-.19-.2-.36-.36-.52-.16-.17-.38-.3-.65-.41-.26-.11-.59-.17-.98-.17-.42,0-.81.07-1.17.21-.36.14-.69.33-.99.56-.29.24-.56.52-.79.84-.23.32-.42.67-.58,1.04-.15.37-.27.76-.35,1.16s-.12.8-.12,1.2c0,.47.06.91.18,1.29.12.38.3.71.53.98.23.27.52.47.86.62.34.14.74.21,1.17.21.3,0,.6-.03.86-.1.27-.06.53-.15.78-.28.25-.12.5-.29.75-.48.25-.2.5-.44.76-.71h0Z"/>
        <path id="path92982" class="st1" d="M130.01,127.75l.23-2.34c0-.19-.09-.28-.28-.28h-.34l-.95,7.93h.74l.48-4.04c.19-.62.41-1.16.64-1.62.24-.45.51-.81.79-1.08.28-.27.59-.44.91-.51.32-.07.67-.04,1.02.1l.13-.71c-.32-.13-.64-.17-.95-.11s-.61.19-.91.41c-.29.22-.56.52-.82.91-.26.38-.49.83-.71,1.35h0Z"/>
        <path id="path92986" class="st1" d="M144.27,129.67c-.49,0-.88-.14-1.17-.44-.28-.29-.43-.72-.43-1.28,0-.3.05-.6.14-.88.1-.29.23-.55.41-.77s.4-.4.67-.53c.26-.14.57-.21.91-.21.49,0,.88.14,1.17.42.3.28.44.69.44,1.24,0,.3-.05.59-.15.89-.1.29-.24.55-.42.79-.18.23-.41.41-.68.56-.27.14-.57.21-.91.21h0ZM145.81,132.31v-.02c.12.15.22.32.3.51.08.18.12.41.12.67,0,.26-.07.5-.2.74-.13.24-.32.45-.56.64-.24.19-.52.33-.86.44s-.72.17-1.14.17c-.33,0-.63-.03-.9-.1s-.5-.16-.69-.28c-.19-.12-.34-.27-.44-.44-.1-.18-.15-.38-.15-.6,0-.29.1-.57.28-.83s.46-.47.84-.64c.38-.17.85-.28,1.41-.33.57-.05,1.23-.03,1.99.09h0ZM148.35,125.41h-2.06c-.39-.27-.85-.4-1.4-.4-.46,0-.87.08-1.23.25-.36.16-.66.38-.91.66-.24.28-.43.59-.56.94-.13.35-.19.71-.19,1.07s.05.68.16.95c.11.27.25.5.44.69.18.19.41.33.67.42s.54.14.84.14c.28,0,.55-.04.79-.12s.47-.2.68-.34c-.18.27-.3.5-.36.69-.06.19-.1.38-.1.56,0,.17.03.32.1.46.06.14.14.27.23.39-.64-.08-1.24-.1-1.83-.04s-1.1.19-1.55.39c-.44.2-.8.46-1.07.79-.27.33-.4.71-.41,1.16,0,.29.07.56.21.79s.33.43.58.59c.25.17.55.29.9.37.35.09.73.13,1.15.13.53,0,1.01-.07,1.44-.21.43-.14.8-.34,1.11-.57s.54-.51.71-.83c.17-.31.26-.63.26-.96,0-.22-.03-.41-.1-.59-.06-.17-.13-.34-.23-.48-.1-.15-.2-.28-.31-.41-.11-.13-.2-.25-.3-.38-.09-.13-.17-.25-.24-.38-.06-.13-.09-.27-.09-.41,0-.19.03-.37.1-.54s.16-.34.26-.5c.11-.16.22-.33.34-.5.13-.18.24-.36.35-.56.11-.2.19-.42.26-.66.07-.24.11-.5.12-.79,0-.24-.03-.46-.08-.66-.05-.2-.12-.38-.22-.55l1.29-.1c.08,0,.13-.03.16-.07.03-.04.05-.09.06-.14l.02-.25h0Z"/>
        <path id="path92988" class="st1" d="M150.79,127.75l.23-2.34c0-.19-.09-.28-.28-.28h-.34l-.95,7.93h.74l.48-4.04c.19-.62.41-1.16.64-1.62.24-.45.51-.81.79-1.08.28-.27.59-.44.91-.51.32-.07.67-.04,1.02.1l.13-.71c-.32-.13-.64-.17-.95-.11s-.61.19-.91.41c-.29.22-.56.52-.82.91-.26.38-.49.83-.71,1.35h0Z"/>
        <path id="path92990" class="st1" d="M157.6,132.56h0c-.67,0-1.2-.23-1.57-.69-.37-.47-.56-1.12-.56-1.96,0-.55.07-1.09.22-1.6.15-.51.36-.97.62-1.36.27-.4.6-.72.97-.95.38-.24.8-.36,1.26-.36.67,0,1.19.23,1.56.68s.56,1.1.56,1.95c0,.55-.07,1.08-.22,1.6-.14.51-.35.97-.62,1.37-.27.4-.6.72-.98.96-.37.24-.79.36-1.25.36h0ZM157.54,133.15c.57,0,1.09-.14,1.57-.41.48-.27.89-.63,1.23-1.08.35-.45.61-.98.8-1.56.2-.59.29-1.2.29-1.84,0-.5-.07-.94-.21-1.34-.13-.4-.32-.74-.57-1.02-.24-.28-.54-.5-.89-.64-.35-.15-.73-.22-1.15-.22-.57,0-1.09.14-1.57.41-.48.27-.89.62-1.24,1.07-.35.45-.61.97-.8,1.56-.19.59-.28,1.2-.28,1.84,0,.51.07.96.2,1.37.14.4.33.74.57,1.02.25.28.54.5.89.64.35.15.74.22,1.16.22h0Z"/>
        <path id="path92992" class="st1" d="M173.87,125.15h-.52c-.06,0-.11.02-.16.05-.05.03-.09.08-.11.13l-2.59,6.23c-.04.12-.08.24-.12.35s-.07.22-.11.33c0-.11-.02-.22-.04-.33,0-.11-.03-.23-.05-.34l-1.17-6.29c-.01-.12-.08-.18-.19-.18h-.29c-.12,0-.19.06-.23.18l-2.72,6.29c-.05.12-.09.23-.13.34s-.09.22-.13.33c0-.22-.02-.44-.05-.68l-1.06-6.23c-.03-.13-.11-.19-.25-.19h-.53l1.46,7.9h.52c.09,0,.15-.05.19-.17l2.8-6.42c.03-.06.05-.12.07-.18.02-.06.04-.13.06-.19,0,.12.02.25.05.37l1.21,6.42c.02.11.07.17.15.17h.54l3.39-7.9h0Z"/>
        <path id="path92994" class="st1" d="M179.11,131.73h0c0,.49.13.86.37,1.09.25.24.59.36,1.02.36.3,0,.6-.07.91-.2.3-.14.56-.32.77-.54l-.14-.33c-.03-.05-.06-.08-.12-.08-.03,0-.08.03-.14.09-.06.05-.15.11-.25.18-.1.06-.22.12-.36.18-.13.05-.28.08-.46.08-.25,0-.46-.08-.63-.23-.16-.15-.24-.4-.24-.75v-.1s0-.11.02-.19c0-.09.02-.2.04-.34.02-.14.04-.31.07-.53l.55-4.46h2.29l.06-.56h-2.29l.37-3.02h-.36c-.05,0-.1.02-.13.05-.04.04-.06.08-.07.13l-.52,2.83-1.25.1-.04.29c0,.06,0,.1.03.13.03.03.07.05.13.05h1.04l-.54,4.49c-.03.23-.05.43-.07.58-.02.15-.03.27-.04.36,0,.1,0,.17-.02.21v.12h0Z"/>
        <path id="path92996" class="st1" d="M187.13,132.56h0c-.67,0-1.2-.23-1.57-.69-.37-.47-.56-1.12-.56-1.96,0-.55.07-1.09.22-1.6.15-.51.36-.97.62-1.36.27-.4.6-.72.97-.95.38-.24.8-.36,1.26-.36.67,0,1.19.23,1.56.68s.56,1.1.56,1.95c0,.55-.07,1.08-.22,1.6-.14.51-.35.97-.62,1.37-.27.4-.6.72-.98.96-.37.24-.79.36-1.25.36h0ZM187.07,133.15c.57,0,1.09-.14,1.57-.41s.89-.63,1.23-1.08c.35-.45.61-.98.8-1.56.2-.59.29-1.2.29-1.84,0-.5-.07-.94-.21-1.34-.13-.4-.32-.74-.57-1.02-.24-.28-.54-.5-.89-.64-.35-.15-.73-.22-1.15-.22-.57,0-1.09.14-1.57.41-.48.27-.89.62-1.24,1.07-.35.45-.61.97-.8,1.56-.19.59-.28,1.2-.28,1.84,0,.51.07.96.2,1.37.14.4.33.74.57,1.02.25.28.54.5.89.64.35.15.74.22,1.16.22h0Z"/>
        <path id="path92998" class="st1" d="M195.58,129.67c-.49,0-.88-.14-1.17-.44s-.43-.72-.43-1.28c0-.3.05-.6.14-.88.1-.29.23-.55.41-.77s.4-.4.67-.53c.26-.14.57-.21.91-.21.49,0,.88.14,1.17.42.3.28.44.69.44,1.24,0,.3-.05.59-.15.89-.1.29-.24.55-.42.79-.18.23-.41.41-.68.56-.27.14-.57.21-.91.21h0ZM197.12,132.31v-.02c.12.15.22.32.3.51.08.18.12.41.12.67,0,.26-.07.5-.2.74-.13.24-.32.45-.56.64-.24.19-.52.33-.86.44s-.72.17-1.14.17c-.33,0-.63-.03-.9-.1s-.5-.16-.69-.28c-.19-.12-.34-.27-.44-.44-.1-.18-.15-.38-.15-.6,0-.29.1-.57.28-.83.19-.26.46-.47.84-.64.38-.17.85-.28,1.41-.33.57-.05,1.23-.03,1.99.09h0ZM199.65,125.41h-2.06c-.39-.27-.85-.4-1.4-.4-.46,0-.87.08-1.23.25-.36.16-.66.38-.91.66-.24.28-.43.59-.56.94-.13.35-.19.71-.19,1.07s.05.68.16.95c.11.27.25.5.44.69.18.19.41.33.67.42s.54.14.84.14c.28,0,.55-.04.79-.12s.47-.2.68-.34c-.18.27-.3.5-.36.69-.06.19-.1.38-.1.56,0,.17.03.32.1.46.06.14.14.27.23.39-.64-.08-1.24-.1-1.83-.04s-1.1.19-1.55.39c-.44.2-.8.46-1.07.79-.27.33-.4.71-.41,1.16,0,.29.07.56.21.79s.33.43.58.59c.25.17.55.29.9.37.35.09.73.13,1.15.13.53,0,1.01-.07,1.44-.21.43-.14.8-.34,1.11-.57s.54-.51.71-.83c.17-.31.26-.63.26-.96,0-.22-.03-.41-.1-.59-.06-.17-.13-.34-.23-.48-.1-.15-.2-.28-.31-.41-.11-.13-.2-.25-.3-.38-.09-.13-.17-.25-.24-.38s-.09-.27-.09-.41c0-.19.03-.37.1-.54s.16-.34.26-.5.22-.33.34-.5c.13-.18.24-.36.35-.56.11-.2.19-.42.26-.66.07-.24.11-.5.12-.79,0-.24-.03-.46-.08-.66-.05-.2-.12-.38-.22-.55l1.29-.1c.08,0,.13-.03.16-.07.03-.04.05-.09.06-.14l.02-.25h0Z"/>
        <path id="path93000" class="st1" d="M204.46,125.58h0c.28,0,.51.04.69.11.19.07.35.16.46.26.12.11.2.23.25.36.05.13.08.25.08.36,0,.15-.02.3-.06.44-.04.14-.12.28-.23.42-.11.13-.27.26-.48.39-.21.13-.49.25-.83.36-.34.11-.75.21-1.24.31-.49.09-1.07.18-1.74.25.09-.43.21-.84.39-1.23.18-.4.4-.75.66-1.05.27-.3.57-.54.91-.71.35-.18.73-.27,1.15-.27h0ZM206.42,131.59l-.18-.21c-.05-.05-.1-.08-.17-.08s-.13.03-.21.1c-.07.06-.16.13-.27.23-.11.09-.23.2-.36.3-.13.11-.29.2-.47.3-.18.09-.38.17-.6.24-.22.06-.47.09-.76.09-.72,0-1.26-.22-1.62-.67-.36-.44-.53-1.06-.53-1.85,0-.11,0-.21,0-.33,0-.11.02-.22.03-.33.74-.08,1.39-.17,1.94-.28s1.02-.22,1.41-.35c.4-.13.72-.28.98-.43.26-.15.46-.32.6-.49.15-.18.25-.36.31-.56.06-.2.09-.4.09-.62,0-.17-.04-.34-.11-.52-.07-.19-.2-.36-.36-.52-.16-.17-.38-.3-.65-.41-.26-.11-.59-.17-.98-.17-.42,0-.81.07-1.17.21-.36.14-.69.33-.99.56-.29.24-.56.52-.79.84-.23.32-.42.67-.58,1.04-.15.37-.27.76-.35,1.16s-.12.8-.12,1.2c0,.47.06.91.18,1.29.12.38.3.71.53.98.23.27.52.47.86.62.34.14.74.21,1.17.21.3,0,.6-.03.86-.1.27-.06.53-.15.78-.28.25-.12.5-.29.75-.48.25-.2.5-.44.76-.71h0Z"/>
        <path id="path93002" class="st1" d="M209.04,131.73h0c0,.49.13.86.37,1.09.25.24.59.36,1.02.36.3,0,.6-.07.91-.2.3-.14.56-.32.77-.54l-.14-.33c-.03-.05-.06-.08-.12-.08-.03,0-.08.03-.14.09-.06.05-.15.11-.25.18-.1.06-.22.12-.36.18-.13.05-.28.08-.46.08-.25,0-.46-.08-.63-.23-.16-.15-.24-.4-.24-.75v-.1s0-.11.02-.19c0-.09.02-.2.04-.34.02-.14.04-.31.07-.53l.55-4.46h2.29l.06-.56h-2.29l.37-3.02h-.36c-.05,0-.1.02-.13.05-.04.04-.06.08-.07.13l-.52,2.83-1.25.1-.04.29c0,.06,0,.1.03.13.03.03.07.05.13.05h1.04l-.54,4.49c-.03.23-.05.43-.07.58-.02.15-.03.27-.04.36,0,.1,0,.17-.02.21v.12h0Z"/>
        <path id="path93004" class="st1" d="M215.81,127.52l.73-6.03h-.75l-1.4,11.56h.75l.52-4.28c.19-.48.41-.91.66-1.29.25-.39.51-.72.79-.99.28-.27.57-.48.86-.62.3-.15.59-.22.87-.22.52,0,.88.2,1.07.61.19.4.24.98.15,1.73l-.6,5.05h.75l.6-5.05c.06-.47.06-.89.02-1.25-.04-.37-.13-.68-.28-.94s-.34-.45-.58-.58c-.24-.13-.53-.2-.88-.2-.29,0-.6.05-.9.17-.3.11-.59.28-.87.49-.28.21-.55.47-.81.79-.25.31-.49.66-.7,1.05h0Z"/>
        <path id="path93006" class="st1" d="M226.99,125.58h0c.28,0,.51.04.69.11.19.07.35.16.46.26.12.11.2.23.25.36.05.13.08.25.08.36,0,.15-.02.3-.06.44-.04.14-.12.28-.23.42-.11.13-.27.26-.48.39-.21.13-.49.25-.83.36-.34.11-.75.21-1.24.31-.49.09-1.07.18-1.74.25.09-.43.21-.84.39-1.23.18-.4.4-.75.66-1.05.27-.3.57-.54.91-.71.35-.18.73-.27,1.15-.27h0ZM228.94,131.59l-.18-.21c-.05-.05-.1-.08-.17-.08s-.13.03-.21.1c-.07.06-.16.13-.27.23-.11.09-.23.2-.36.3-.13.11-.29.2-.47.3-.18.09-.38.17-.6.24-.22.06-.47.09-.76.09-.72,0-1.26-.22-1.62-.67-.36-.44-.53-1.06-.53-1.85,0-.11,0-.21,0-.33,0-.11.02-.22.03-.33.74-.08,1.39-.17,1.94-.28s1.02-.22,1.41-.35c.4-.13.72-.28.98-.43.26-.15.46-.32.6-.49.15-.18.25-.36.31-.56.06-.2.09-.4.09-.62,0-.17-.04-.34-.11-.52-.07-.19-.2-.36-.36-.52-.16-.17-.38-.3-.65-.41-.26-.11-.59-.17-.98-.17-.42,0-.81.07-1.17.21-.36.14-.69.33-.99.56-.29.24-.56.52-.79.84-.23.32-.42.67-.58,1.04-.15.37-.27.76-.35,1.16s-.12.8-.12,1.2c0,.47.06.91.18,1.29.12.38.3.71.53.98.23.27.52.47.86.62.34.14.74.21,1.17.21.3,0,.6-.03.86-.1.27-.06.53-.15.78-.28.25-.12.5-.29.75-.48.25-.2.5-.44.76-.71h0Z"/>
        <path id="path93008" class="st1" d="M232.37,127.75l.23-2.34c0-.19-.09-.28-.28-.28h-.34l-.95,7.93h.74l.48-4.04c.19-.62.41-1.16.64-1.62.24-.45.51-.81.79-1.08.28-.27.59-.44.91-.51.32-.07.67-.04,1.02.1l.13-.71c-.32-.13-.64-.17-.95-.11s-.61.19-.91.41c-.29.22-.56.52-.82.91-.26.38-.49.83-.71,1.35h0Z"/>
      </g>
    </g>
    <g>
      <path class="st2" d="M50.35,38.92l-5.97,14.99-5.67-14.99h-9.35l-5.67,14.98-5.98-14.98H6.57l11.99,28.58,1.46,3.5h7.71l1.28-3.79,5.04-14.92,5.04,14.93,1.27,3.78h7.71l1.46-3.5,11.98-28.58h-11.15Z"/>
      <path class="st2" d="M86.28,59.36c0,2.62-1.86,4.85-5.81,4.85s-6.7-2.06-6.7-7.32h23.22c0-2.31-.2-4.52-.64-6.57-1.57-7.37-6.28-12.57-16.36-12.57-6.52,0-17.36,3.4-17.36,17.38s12.56,17.06,17.48,17.06,16.84-1.62,16.84-12.84h-10.66ZM74.04,50.33c0-2.12,1.87-5.25,6.25-5.25s6.17,2.85,6.17,5.21l.07.04h-12.5Z"/>
      <path class="st2" d="M113.73,71.03V20.52h-11.15v50.51h11.15Z"/>
      <path class="st2" d="M142.71,59.36c0,2.62-1.86,4.85-5.81,4.85s-6.7-2.06-6.7-7.32h23.22c0-2.31-.2-4.52-.64-6.57-1.57-7.37-6.28-12.57-16.36-12.57-6.52,0-17.36,3.4-17.36,17.38s12.56,17.06,17.48,17.06,16.84-1.62,16.84-12.84h-10.66ZM130.46,50.33c0-2.12,1.87-5.25,6.25-5.25s6.17,2.85,6.17,5.21l.07.04h-12.5Z"/>
      <path class="st2" d="M182.89,38.89v3.02c-2.68-2.47-6.12-3.95-9.87-3.95-8.53,0-15.45,7.67-15.45,17.12s6.92,17.12,15.45,17.12c3.75,0,7.19-1.49,9.87-3.96v2.78h11.15v-32.14h-11.15ZM176.1,62.46c-3.9,0-7.07-3.3-7.07-7.37s3.16-7.37,7.07-7.37,6.79,3.3,6.79,7.37-2.89,7.37-6.79,7.37Z"/>
      <path class="st2" d="M200.79,71h11.15v-32.07h-11.15v32.07h0Z"/>
      <path class="st1" d="M220.39,51.67c3.41,0,6.18-2.85,6.18-6.38s-2.76-6.38-6.18-6.38-6.18,2.86-6.18,6.38,2.76,6.38,6.18,6.38Z"/>
      <path class="st2" d="M263.96,50.07c0-8.2-5.58-11.83-11.94-11.83-7.15,0-9.87,4.6-9.87,4.6v-3.91h-11.15v32.07h11.15v-17.45c0-2.64,1.02-6.31,5.66-6.31,3.21,0,5,1.84,5,7.01v16.75h11.15v-20.93h0Z"/>
    </g>
  </g>
</svg>